<svg width="1123" height="380" viewBox="0 0 1123 380" fill="none" xmlns="http://www.w3.org/2000/svg">
<path d="M195.2 87.2C193.9 88 192.8 88.5 191.8 88.5C189.8 88.6 188.1 87.4 186.4 85.1C160.7 50.2 132.9 35.3 112.1 36C96.8 36.4 79.3 42.9 79.2 69.9C79.1 93.6 103.6 103.7 126.9 109.3C173.6 120.9 206.8 139.4 206.3 189.5C205.9 233.3 177.7 282.4 121.9 297.3C104.4 301.8 87.1 302 72.4 297C70.9 296.5 69.7 296.4 68.7 296.7C66 297.4 65.3 300.8 66.5 305.4C66.9 307 67.1 308.5 67.1 309.7C67.1 312.8 65.7 314.7 62.3 315.4C57.2 316.9 52.1 318.5 47.1 320C43.6 321.1 41.3 320.3 39.6 316.8C27.5 290.8 15.4 263.9 3.19998 235.9C2.49998 234.3 2.09998 232.7 2.09998 231.1C2.09998 228.4 3.19998 225.8 5.49998 223.6C9.89998 219.2 14.3 214.9 18.7 210.6C20 209.3 21.2 208.6 22.4 208.4C24.4 208 26.1 209.2 27.5 211.9C54.8 261.5 76.9 268.4 112 260.3C138.4 254.1 158.3 236.8 158.5 216.1C158.8 180.2 143.8 169.7 111.2 162.9C41.3 148.6 30.8 110.3 30.8 79.1C30.8 33.7 61.1 5.80002 108.5 6.10002C131.1 6.10002 153.5 17.3 160.9 22.1C161.7 22.6 162.3 22.8 162.8 22.8C165.1 22.8 164.8 17.7 163.5 12.4C163.2 11.2 163.1 10.1 163.1 9.10002C163.1 5.80002 164.9 3.90002 168.6 3.90002C172.4 3.90002 176.1 3.90002 179.9 3.90002C183.6 3.90002 186 5.70002 187.3 9.60002C194.3 30.2 201.3 50.4 208.4 70.3C209 72.1 209.5 73.6 209.4 75C209.4 77 208.4 78.6 205.9 80.3C202.2 82.6 198.7 84.9 195.2 87.2ZM394.8 27.1V27.3C394.8 27.3 400 24.9 403.7 26.3C409 28.2 408.1 39 401.8 41.7C397.6 43.5 384.5 43.9 380.7 32.3C376.5 19.5 385.3 4.90002 399 4.90002C409.8 4.90002 437.4 4.90002 448.2 4.90002C449.7 4.90002 450.7 5.40002 451.6 6.40002C479.3 35.6 507.2 64.3 535.2 93.2C535.2 72.6 535.2 51.9 535.2 31.3C535.2 22.1 530.6 15.1 521.4 15.1C519.6 15.1 518.6 14.2 518.6 12.5C518.6 10.8 518.6 9.10002 518.6 7.40002C518.6 5.70002 519.6 4.80003 521.4 4.80003C536.8 4.80003 552.2 4.80003 567.6 4.80003C569.4 4.80003 570.4 5.70002 570.4 7.40002C570.4 9.10002 570.4 10.8 570.4 12.5C570.4 14.2 569.4 15.1 567.6 15.1C558.4 15.1 553.8 22 554 31.3C554 64.2 554.1 97.1 554.1 130.1C554.1 132 552.8 132.9 550.3 132.6C546.9 132.1 543.5 131.9 540.2 132.5C537.5 132.9 536.2 132.6 534.8 131.2C505.1 100.4 475.5 69.9 446.1 39C446 61.8 445.9 84.7 445.7 107.5C445.7 116.9 450.3 123.7 459.5 123.5C461.4 123.5 462.3 124.3 462.3 126C462.3 127.7 462.3 129.4 462.3 131.1C462.3 132.8 461.3 133.7 459.5 133.7C444 134.1 428.5 134.7 413 135.3C411.2 135.4 410.2 134.5 410.2 132.8C410.2 131.1 410.2 129.3 410.2 127.6C410.2 125.9 411.2 125 413 124.9C422.2 124.5 426.7 117.3 426.8 107.9C427 78.5 427.2 55.9 427.3 26.4L427.5 23.8C422.9 17.2 411.1 17.6 403.3 18.7C398.9 19.3 395.5 22.7 394.8 27.1ZM722.4 29.9C722.8 30.5 722.9 31 722.9 31.5C722.9 32.4 722.4 33.1 721.3 33.7C718.7 35 716.1 36.3 713.5 37.6C712.9 37.9 712.4 38.1 711.8 38.1C710.9 38.1 710.1 37.6 709.5 36.6C709.3 36.3 709.1 35.9 708.9 35.6C701.7 24 690.4 19.2 675.1 19.1C671.9 19.1 668.7 19.1 665.5 19C665.7 48.8 665.9 78.5 666.1 108.3C666.2 117.4 668.7 128.3 678.3 131.8C681.9 133.4 683 134.3 683 136C683 137.8 683 139.5 683 141.3C683 143 682 143.9 680.2 143.8C656.3 139.5 642.1 135.9 622.2 133.8C620.4 133.7 619.4 132.8 619.4 131.1C619.4 129.4 619.4 127.7 619.4 125.9C619.4 124.2 620.4 123.4 622.2 123.4C622.6 123.4 623 123.4 623.3 123.4C632.9 123.2 636 116.5 635.9 107.4C635.7 77.9 635.6 48.4 635.4 18.9C632.4 18.9 629.3 18.9 626.3 18.9C611.1 18.8 599.8 23.5 592.7 34.6C592.5 34.9 592.3 35.2 592.1 35.5C591.5 36.4 590.7 36.9 589.8 36.9C589.3 36.9 588.7 36.7 588.1 36.4C585.5 35.1 582.9 33.8 580.2 32.5C579.2 31.9 578.7 31.2 578.7 30.4C578.7 29.9 578.9 29.4 579.2 28.9C584.2 20.6 589.1 12.3 594.1 3.90002C594.7 3.00002 595.5 2.50002 596.5 2.50002C597 2.50002 597.6 2.70002 598.1 3.00002C598.4 3.30002 598.8 3.60002 599.1 3.90002C600.2 4.80002 601.3 4.80003 602.7 4.80003C634.6 4.80003 666.6 4.80002 698.5 4.90002C699.9 4.90002 701 4.90002 702.1 3.90002C702.4 3.60002 702.8 3.30002 703.1 3.00002C703.6 2.60002 704.2 2.40002 704.7 2.40002C705.6 2.40002 706.5 2.90003 707.1 3.80003C712.3 12.5 717.4 21.2 722.4 29.9ZM853.4 155.9C856.1 168.2 857.6 187.6 866.3 193.7C869.7 196.1 870 197.8 869.7 200.1C869.4 202.5 869 204.8 868.7 207.2C868.4 209.5 867 210.6 864.9 210.3C840.9 199 818.9 191.8 796.2 185.7C794 185.5 793 184.2 793.3 182C793.6 179.8 794 177.5 794.3 175.3C794.6 173.1 796 172.1 798.2 172.3C807.3 173.2 816.5 167.6 817.8 158.4C818.1 156.5 816.2 142.4 815.8 140.2C814.4 133.6 813 127 811.6 120.5C791.1 118.9 770.5 117.5 749.9 116.3C746.8 122.3 743.6 128.3 740.5 134.3C739.5 136.1 739 137.9 738.7 139.6C737.4 148.4 744 159.1 754 162.7C756.1 163.4 757.2 164.1 756.9 166.3C756.6 168.5 756.3 170.7 755.9 172.9C755.6 175 754.2 176.1 752 175.9C731.2 170.6 714.6 168.3 695.9 165C693.7 164.9 692.7 163.7 693 161.6C693.3 159.5 693.6 157.3 694 155.2C694.3 153.1 695.7 152.1 697.9 152.2C707.8 152.8 711.8 143.8 717.8 132.9C740.2 92.1 762.7 50.6 785.3 7.90002C786.3 6.10002 787.6 5.20002 789.6 5.20002C798.7 5.20002 807.8 5.20002 816.9 5.20002C818.9 5.20002 820 6.10002 820.4 7.90002C830.9 51.5 843.2 108.9 853.4 155.9ZM759.5 97.6C775.4 98.4 791.3 99.3 807.1 100.3C802.2 77.8 797.3 55.7 792.3 33.9C781.4 55.4 770.4 76.6 759.5 97.6ZM383.8 131.3C390.1 141.9 394.3 151.1 403.8 150.6C406 150.5 407.4 151.5 407.7 153.6C408.1 155.7 408.4 157.8 408.8 159.9C409.1 162 408.1 163.1 405.9 163.3C379.2 166.4 358.2 171.2 336.7 177.6C334.5 177.8 333.1 176.7 332.8 174.6C332.4 172.4 332.1 170.2 331.7 168.1C331.3 166 333.7 164.1 335.8 163.3C347.9 158.5 351 147.7 349.5 139C349.2 137.2 348.5 135.4 347.5 133.5C344.2 127.6 340.8 121.6 337.5 115.6C316.9 116.7 296.3 118.1 275.8 119.6C274.6 126.1 272.9 138.8 272.2 144.8C270.5 158.7 269.7 182 287.5 180C289.7 179.7 291.1 180.8 291.4 183C291.8 185.2 292.1 187.5 292.5 189.7C292.9 191.9 291.9 193.2 289.7 193.4C270.4 197.2 254.3 202.8 230.5 211.8C228.3 212.1 227 211 226.6 208.8C226.2 206.5 226 206.6 225.6 204.2C225 200.3 227.5 198.2 230.4 195.7C242.4 185.2 247.4 153.7 249.8 141.3C258.6 95.4 267.7 51 276.9 7.90002C277.3 6.10002 278.4 5.20002 280.3 5.20002C289.4 5.20002 298.5 5.20002 307.6 5.20002C309.6 5.20002 310.9 6.00003 311.9 7.80003C335.9 49.8 359.9 90.9 383.8 131.3ZM279.5 99.6C295.3 98.7 311.2 97.8 327.1 97C315.5 76.2 303.8 55.1 292.1 33.7C287.9 55.4 283.7 77.3 279.5 99.6ZM1121 366.2C1121 369.8 1121 370.6 1121 374.2C1121 377.7 1115.2 378.4 1112.1 375.7C1080.1 339.1 1039.2 310.4 1016.8 295.7C1013 293.7 1012.6 289.8 1012.6 286.6C1012.6 283.3 1012.6 283.3 1012.5 280C1012.5 276.8 1013.9 275.4 1016.7 275.9C1017.3 276 1017.9 276.1 1018.5 276.3C1027.8 277.7 1032.2 271.9 1032.2 262.9C1032.2 258.2 1025.4 221.1 1023.2 212.6C1016.4 189.1 1013.4 164.2 996.5 143.4C990.8 143.3 984.6 142.9 978 142.1C971 141.3 964 140.4 957 139.6C957.1 157 957.3 174.5 957.4 191.9C957.5 208.4 954.7 232.4 974.8 245.6C977 247.4 982.5 251.7 982.5 258.3C982.5 261.5 982.5 264.7 982.6 268C982.6 271.1 981.2 272.5 978.4 271.9C944.2 249.6 919.9 238.9 892 228.1C889.3 227.6 887.8 225.8 887.7 222.9C887.7 219.9 887.6 216.9 887.6 213.9C887.6 211 889 209.7 891.8 210.1C892.4 210.2 893.1 210.3 893.7 210.4C908 211.9 912.6 197.3 912.4 181.3C912 136.9 911.5 96.3 911.1 51.9C910.9 35.4 905.8 23 890.3 22.8C890.2 22.8 890.1 22.8 890 22.8C887.2 22.8 885.7 21.2 885.7 18.3C885.7 15.3 885.6 12.4 885.6 9.40002C885.6 6.50002 887 4.90002 889.8 5.00002C924.4 5.10002 959 5.20003 993.7 5.30003C1039.6 4.90003 1069.2 38.7 1069.3 78.9C1069.3 102.6 1060.1 125.7 1036.1 136.5C1063.1 163.1 1084.1 312.4 1115.3 353.2C1116.6 355.4 1121 360.2 1121 366.2ZM973.1 119.1C1010.6 123.1 1027.2 106.5 1027.1 76C1027 44.9 1009.8 25 981.5 24.6C973 24.4 964.5 24.3 956 24.1C956.3 55.2 956.5 86.4 956.8 117.5C962.2 118 967.6 118.6 973.1 119.1Z" fill="url(#paint0_linear_34_18)"/>
<g opacity="0.25">
<path d="M195.2 87.2C193.9 88 192.8 88.5 191.8 88.5C189.8 88.6 188.1 87.4 186.4 85.1C160.7 50.2 132.9 35.3 112.1 36C96.8 36.4 79.3 42.9 79.2 69.9C79.1 93.6 103.6 103.7 126.9 109.3C173.6 120.9 206.8 139.4 206.3 189.5C205.9 233.3 177.7 282.4 121.9 297.3C104.4 301.8 87.1 302 72.4 297C70.9 296.5 69.7 296.4 68.7 296.7C66 297.4 65.3 300.8 66.5 305.4C66.9 307 67.1 308.5 67.1 309.7C67.1 312.8 65.7 314.7 62.3 315.4C57.2 316.9 52.1 318.5 47.1 320C43.6 321.1 41.3 320.3 39.6 316.8C27.5 290.8 15.4 263.9 3.19998 235.9C2.49998 234.3 2.09998 232.7 2.09998 231.1C2.09998 228.4 3.19998 225.8 5.49998 223.6C9.89998 219.2 14.3 214.9 18.7 210.6C20 209.3 21.2 208.6 22.4 208.4C24.4 208 26.1 209.2 27.5 211.9C54.8 261.5 76.9 268.4 112 260.3C138.4 254.1 158.3 236.8 158.5 216.1C158.8 180.2 143.8 169.7 111.2 162.9C41.3 148.6 30.8 110.3 30.8 79.1C30.8 33.7 61.1 5.80002 108.5 6.10002C131.1 6.10002 153.5 17.3 160.9 22.1C161.7 22.6 162.3 22.8 162.8 22.8C165.1 22.8 164.8 17.7 163.5 12.4C163.2 11.2 163.1 10.1 163.1 9.10002C163.1 5.80002 164.9 3.90002 168.6 3.90002C172.4 3.90002 176.1 3.90002 179.9 3.90002C183.6 3.90002 186 5.70002 187.3 9.60002C194.3 30.2 201.3 50.4 208.4 70.3C209 72.1 209.5 73.6 209.4 75C209.4 77 208.4 78.6 205.9 80.3C202.2 82.6 198.7 84.9 195.2 87.2ZM394.8 27.1V27.3C394.8 27.3 400 24.9 403.7 26.3C409 28.2 408.1 39 401.8 41.7C397.6 43.5 384.5 43.9 380.7 32.3C376.5 19.5 385.3 4.90002 399 4.90002C409.8 4.90002 437.4 4.90002 448.2 4.90002C449.7 4.90002 450.7 5.40002 451.6 6.40002C479.3 35.6 507.2 64.3 535.2 93.2C535.2 72.6 535.2 51.9 535.2 31.3C535.2 22.1 530.6 15.1 521.4 15.1C519.6 15.1 518.6 14.2 518.6 12.5C518.6 10.8 518.6 9.10002 518.6 7.40002C518.6 5.70002 519.6 4.80003 521.4 4.80003C536.8 4.80003 552.2 4.80003 567.6 4.80003C569.4 4.80003 570.4 5.70002 570.4 7.40002C570.4 9.10002 570.4 10.8 570.4 12.5C570.4 14.2 569.4 15.1 567.6 15.1C558.4 15.1 553.8 22 554 31.3C554 64.2 554.1 97.1 554.1 130.1C554.1 132 552.8 132.9 550.3 132.6C546.9 132.1 543.5 131.9 540.2 132.5C537.5 132.9 536.2 132.6 534.8 131.2C505.1 100.4 475.5 69.9 446.1 39C446 61.8 445.9 84.7 445.7 107.5C445.7 116.9 450.3 123.7 459.5 123.5C461.4 123.5 462.3 124.3 462.3 126C462.3 127.7 462.3 129.4 462.3 131.1C462.3 132.8 461.3 133.7 459.5 133.7C444 134.1 428.5 134.7 413 135.3C411.2 135.4 410.2 134.5 410.2 132.8C410.2 131.1 410.2 129.3 410.2 127.6C410.2 125.9 411.2 125 413 124.9C422.2 124.5 426.7 117.3 426.8 107.9C427 78.5 427.2 55.9 427.3 26.4L427.5 23.8C422.9 17.2 411.1 17.6 403.3 18.7C398.9 19.3 395.5 22.7 394.8 27.1ZM722.4 29.9C722.8 30.5 722.9 31 722.9 31.5C722.9 32.4 722.4 33.1 721.3 33.7C718.7 35 716.1 36.3 713.5 37.6C712.9 37.9 712.4 38.1 711.8 38.1C710.9 38.1 710.1 37.6 709.5 36.6C709.3 36.3 709.1 35.9 708.9 35.6C701.7 24 690.4 19.2 675.1 19.1C671.9 19.1 668.7 19.1 665.5 19C665.7 48.8 665.9 78.5 666.1 108.3C666.2 117.4 668.7 128.3 678.3 131.8C681.9 133.4 683 134.3 683 136C683 137.8 683 139.5 683 141.3C683 143 682 143.9 680.2 143.8C656.3 139.5 642.1 135.9 622.2 133.8C620.4 133.7 619.4 132.8 619.4 131.1C619.4 129.4 619.4 127.7 619.4 125.9C619.4 124.2 620.4 123.4 622.2 123.4C622.6 123.4 623 123.4 623.3 123.4C632.9 123.2 636 116.5 635.9 107.4C635.7 77.9 635.6 48.4 635.4 18.9C632.4 18.9 629.3 18.9 626.3 18.9C611.1 18.8 599.8 23.5 592.7 34.6C592.5 34.9 592.3 35.2 592.1 35.5C591.5 36.4 590.7 36.9 589.8 36.9C589.3 36.9 588.7 36.7 588.1 36.4C585.5 35.1 582.9 33.8 580.2 32.5C579.2 31.9 578.7 31.2 578.7 30.4C578.7 29.9 578.9 29.4 579.2 28.9C584.2 20.6 589.1 12.3 594.1 3.90002C594.7 3.00002 595.5 2.50002 596.5 2.50002C597 2.50002 597.6 2.70002 598.1 3.00002C598.4 3.30002 598.8 3.60002 599.1 3.90002C600.2 4.80002 601.3 4.80003 602.7 4.80003C634.6 4.80003 666.6 4.80002 698.5 4.90002C699.9 4.90002 701 4.90002 702.1 3.90002C702.4 3.60002 702.8 3.30002 703.1 3.00002C703.6 2.60002 704.2 2.40002 704.7 2.40002C705.6 2.40002 706.5 2.90003 707.1 3.80003C712.3 12.5 717.4 21.2 722.4 29.9ZM853.4 155.9C856.1 168.2 857.6 187.6 866.3 193.7C869.7 196.1 870 197.8 869.7 200.1C869.4 202.5 869 204.8 868.7 207.2C868.4 209.5 867 210.6 864.9 210.3C840.9 199 818.9 191.8 796.2 185.7C794 185.5 793 184.2 793.3 182C793.6 179.8 794 177.5 794.3 175.3C794.6 173.1 796 172.1 798.2 172.3C807.3 173.2 816.5 167.6 817.8 158.4C818.1 156.5 816.2 142.4 815.8 140.2C814.4 133.6 813 127 811.6 120.5C791.1 118.9 770.5 117.5 749.9 116.3C746.8 122.3 743.6 128.3 740.5 134.3C739.5 136.1 739 137.9 738.7 139.6C737.4 148.4 744 159.1 754 162.7C756.1 163.4 757.2 164.1 756.9 166.3C756.6 168.5 756.3 170.7 755.9 172.9C755.6 175 754.2 176.1 752 175.9C731.2 170.6 714.6 168.3 695.9 165C693.7 164.9 692.7 163.7 693 161.6C693.3 159.5 693.6 157.3 694 155.2C694.3 153.1 695.7 152.1 697.9 152.2C707.8 152.8 711.8 143.8 717.8 132.9C740.2 92.1 762.7 50.6 785.3 7.90002C786.3 6.10002 787.6 5.20002 789.6 5.20002C798.7 5.20002 807.8 5.20002 816.9 5.20002C818.9 5.20002 820 6.10002 820.4 7.90002C830.9 51.5 843.2 108.9 853.4 155.9ZM759.5 97.6C775.4 98.4 791.3 99.3 807.1 100.3C802.2 77.8 797.3 55.7 792.3 33.9C781.4 55.4 770.4 76.6 759.5 97.6ZM383.8 131.3C390.1 141.9 394.3 151.1 403.8 150.6C406 150.5 407.4 151.5 407.7 153.6C408.1 155.7 408.4 157.8 408.8 159.9C409.1 162 408.1 163.1 405.9 163.3C379.2 166.4 358.2 171.2 336.7 177.6C334.5 177.8 333.1 176.7 332.8 174.6C332.4 172.4 332.1 170.2 331.7 168.1C331.3 166 333.7 164.1 335.8 163.3C347.9 158.5 351 147.7 349.5 139C349.2 137.2 348.5 135.4 347.5 133.5C344.2 127.6 340.8 121.6 337.5 115.6C316.9 116.7 296.3 118.1 275.8 119.6C274.6 126.1 272.9 138.8 272.2 144.8C270.5 158.7 269.7 182 287.5 180C289.7 179.7 291.1 180.8 291.4 183C291.8 185.2 292.1 187.5 292.5 189.7C292.9 191.9 291.9 193.2 289.7 193.4C270.4 197.2 254.3 202.8 230.5 211.8C228.3 212.1 227 211 226.6 208.8C226.2 206.5 226 206.6 225.6 204.2C225 200.3 227.5 198.2 230.4 195.7C242.4 185.2 247.4 153.7 249.8 141.3C258.6 95.4 267.7 51 276.9 7.90002C277.3 6.10002 278.4 5.20002 280.3 5.20002C289.4 5.20002 298.5 5.20002 307.6 5.20002C309.6 5.20002 310.9 6.00003 311.9 7.80003C335.9 49.8 359.9 90.9 383.8 131.3ZM279.5 99.6C295.3 98.7 311.2 97.8 327.1 97C315.5 76.2 303.8 55.1 292.1 33.7C287.9 55.4 283.7 77.3 279.5 99.6ZM1121 366.2C1121 369.8 1121 370.6 1121 374.2C1121 377.7 1115.2 378.4 1112.1 375.7C1080.1 339.1 1039.2 310.4 1016.8 295.7C1013 293.7 1012.6 289.8 1012.6 286.6C1012.6 283.3 1012.6 283.3 1012.5 280C1012.5 276.8 1013.9 275.4 1016.7 275.9C1017.3 276 1017.9 276.1 1018.5 276.3C1027.8 277.7 1032.2 271.9 1032.2 262.9C1032.2 258.2 1025.4 221.1 1023.2 212.6C1016.4 189.1 1013.4 164.2 996.5 143.4C990.8 143.3 984.6 142.9 978 142.1C971 141.3 964 140.4 957 139.6C957.1 157 957.3 174.5 957.4 191.9C957.5 208.4 954.7 232.4 974.8 245.6C977 247.4 982.5 251.7 982.5 258.3C982.5 261.5 982.5 264.7 982.6 268C982.6 271.1 981.2 272.5 978.4 271.9C944.2 249.6 919.9 238.9 892 228.1C889.3 227.6 887.8 225.8 887.7 222.9C887.7 219.9 887.6 216.9 887.6 213.9C887.6 211 889 209.7 891.8 210.1C892.4 210.2 893.1 210.3 893.7 210.4C908 211.9 912.6 197.3 912.4 181.3C912 136.9 911.5 96.3 911.1 51.9C910.9 35.4 905.8 23 890.3 22.8C890.2 22.8 890.1 22.8 890 22.8C887.2 22.8 885.7 21.2 885.7 18.3C885.7 15.3 885.6 12.4 885.6 9.40002C885.6 6.50002 887 4.90002 889.8 5.00002C924.4 5.10002 959 5.20003 993.7 5.30003C1039.6 4.90003 1069.2 38.7 1069.3 78.9C1069.3 102.6 1060.1 125.7 1036.1 136.5C1063.1 163.1 1084.1 312.4 1115.3 353.2C1116.6 355.4 1121 360.2 1121 366.2ZM973.1 119.1C1010.6 123.1 1027.2 106.5 1027.1 76C1027 44.9 1009.8 25 981.5 24.6C973 24.4 964.5 24.3 956 24.1C956.3 55.2 956.5 86.4 956.8 117.5C962.2 118 967.6 118.6 973.1 119.1Z" fill="black"/>
</g>
<path d="M195.2 87.2C193.9 88 192.8 88.5 191.8 88.5C189.8 88.6 188.1 87.4 186.4 85.1C160.7 50.2 132.9 35.3 112.1 36C96.8 36.4 79.3 42.9 79.2 69.9C79.1 93.6 103.6 103.7 126.9 109.3C173.6 120.9 206.8 139.4 206.3 189.5C205.9 233.3 177.7 282.4 121.9 297.3C104.4 301.8 87.1 302 72.4 297C70.9 296.5 69.7 296.4 68.7 296.7C66 297.4 65.3 300.8 66.5 305.4C66.9 307 67.1 308.5 67.1 309.7C67.1 312.8 65.7 314.7 62.3 315.4C57.2 316.9 52.1 318.5 47.1 320C43.6 321.1 41.3 320.3 39.6 316.8C27.5 290.8 15.4 263.9 3.19998 235.9C2.49998 234.3 2.09998 232.7 2.09998 231.1C2.09998 228.4 3.19998 225.8 5.49998 223.6C9.89998 219.2 14.3 214.9 18.7 210.6C20 209.3 21.2 208.6 22.4 208.4C24.4 208 26.1 209.2 27.5 211.9C54.8 261.5 76.9 268.4 112 260.3C138.4 254.1 158.3 236.8 158.5 216.1C158.8 180.2 143.8 169.7 111.2 162.9C41.3 148.6 30.8 110.3 30.8 79.1C30.8 33.7 61.1 5.80002 108.5 6.10002C131.1 6.10002 153.5 17.3 160.9 22.1C161.7 22.6 162.3 22.8 162.8 22.8C165.1 22.8 164.8 17.7 163.5 12.4C163.2 11.2 163.1 10.1 163.1 9.10002C163.1 5.80002 164.9 3.90002 168.6 3.90002C172.4 3.90002 176.1 3.90002 179.9 3.90002C183.6 3.90002 186 5.70002 187.3 9.60002C194.3 30.2 201.3 50.4 208.4 70.3C209 72.1 209.5 73.6 209.4 75C209.4 77 208.4 78.6 205.9 80.3C202.2 82.6 198.7 84.9 195.2 87.2ZM394.8 27.1V27.3C394.8 27.3 400 24.9 403.7 26.3C409 28.2 408.1 39 401.8 41.7C397.6 43.5 384.5 43.9 380.7 32.3C376.5 19.5 385.3 4.90002 399 4.90002C409.8 4.90002 437.4 4.90002 448.2 4.90002C449.7 4.90002 450.7 5.40002 451.6 6.40002C479.3 35.6 507.2 64.3 535.2 93.2C535.2 72.6 535.2 51.9 535.2 31.3C535.2 22.1 530.6 15.1 521.4 15.1C519.6 15.1 518.6 14.2 518.6 12.5C518.6 10.8 518.6 9.10002 518.6 7.40002C518.6 5.70002 519.6 4.80003 521.4 4.80003C536.8 4.80003 552.2 4.80003 567.6 4.80003C569.4 4.80003 570.4 5.70002 570.4 7.40002C570.4 9.10002 570.4 10.8 570.4 12.5C570.4 14.2 569.4 15.1 567.6 15.1C558.4 15.1 553.8 22 554 31.3C554 64.2 554.1 97.1 554.1 130.1C554.1 132 552.8 132.9 550.3 132.6L540.2 132.5C537.5 132.7 536.2 132.6 534.8 131.2C505.1 100.4 475.5 69.9 446.1 39C446 61.8 445.9 84.7 445.7 107.5C445.7 116.9 450.3 123.7 459.5 123.5C461.4 123.5 462.3 124.3 462.3 126C462.3 127.7 462.3 129.4 462.3 131.1C462.3 132.8 461.3 133.7 459.5 133.7C444 134.1 428.5 134.7 413 135.3C411.2 135.4 410.2 134.5 410.2 132.8C410.2 131.1 410.2 129.3 410.2 127.6C410.2 125.9 411.2 125 413 124.9C422.2 124.5 426.7 117.3 426.8 107.9C427 78.5 427.2 55.9 427.3 26.4L427.5 23.8C422.9 17.2 411.1 17.6 403.3 18.7C398.9 19.3 395.5 22.7 394.8 27.1ZM722.4 29.9C722.8 30.5 722.9 31 722.9 31.5C722.9 32.4 722.4 33.1 721.3 33.7C718.7 35 716.1 36.3 713.5 37.6C712.9 37.9 712.4 38.1 711.8 38.1C710.9 38.1 710.1 37.6 709.5 36.6C709.3 36.3 709.1 35.9 708.9 35.6C701.7 24 690.4 19.2 675.1 19.1C671.9 19.1 668.7 19.1 665.5 19C665.7 48.8 665.9 78.5 666.1 108.3C666.2 117.4 668.7 128.3 678.3 131.8C681.9 133.4 683 134.3 683 136C683 137.8 683 139.5 683 141.3C683 143 682 143.9 680.2 143.8C656.3 139.5 642.1 135.9 622.2 133.8C620.4 133.7 619.4 132.8 619.4 131.1C619.4 129.4 619.4 127.7 619.4 125.9C619.4 124.2 620.4 123.4 622.2 123.4C622.6 123.4 623 123.4 623.3 123.4C632.9 123.2 636 116.5 635.9 107.4C635.7 77.9 635.6 48.4 635.4 18.9C632.4 18.9 629.3 18.9 626.3 18.9C611.1 18.8 599.8 23.5 592.7 34.6C592.5 34.9 592.3 35.2 592.1 35.5C591.5 36.4 590.7 36.9 589.8 36.9C589.3 36.9 588.7 36.7 588.1 36.4C585.5 35.1 582.9 33.8 580.2 32.5C579.2 31.9 578.7 31.2 578.7 30.4C578.7 29.9 578.9 29.4 579.2 28.9C584.2 20.6 589.1 12.3 594.1 3.90002C594.7 3.00002 595.5 2.50002 596.5 2.50002C597 2.50002 597.6 2.70002 598.1 3.00002C598.4 3.30002 598.8 3.60002 599.1 3.90002C600.2 4.80002 601.3 4.80003 602.7 4.80003C634.6 4.80003 666.6 4.80002 698.5 4.90002C699.9 4.90002 701 4.90002 702.1 3.90002C702.4 3.60002 702.8 3.30002 703.1 3.00002C703.6 2.60002 704.2 2.40002 704.7 2.40002C705.6 2.40002 706.5 2.90003 707.1 3.80003C712.3 12.5 717.4 21.2 722.4 29.9ZM853.4 155.9C856.1 168.2 857.6 187.6 866.3 193.7C869.7 196.1 870 197.8 869.7 200.1C869.4 202.5 869 204.8 868.7 207.2C868.4 209.5 867 210.6 864.9 210.3C840.9 199 818.9 191.8 796.2 185.7C794 185.5 793 184.2 793.3 182C793.6 179.8 794 177.5 794.3 175.3C794.6 173.1 796 172.1 798.2 172.3C807.3 173.2 816.5 167.6 817.8 158.4C818.1 156.5 816.2 142.4 815.8 140.2C814.4 133.6 813 127 811.6 120.5C791.1 118.9 770.5 117.5 749.9 116.3C746.8 122.3 743.6 128.3 740.5 134.3C739.5 136.1 739 137.9 738.7 139.6C737.4 148.4 744 159.1 754 162.7C756.1 163.4 757.2 164.1 756.9 166.3C756.6 168.5 756.3 170.7 755.9 172.9C755.6 175 754.2 176.1 752 175.9C731.2 170.6 714.6 168.3 695.9 165C693.7 164.9 692.7 163.7 693 161.6C693.3 159.5 693.6 157.3 694 155.2C694.3 153.1 695.7 152.1 697.9 152.2C707.8 152.8 711.8 143.8 717.8 132.9C740.2 92.1 762.7 50.6 785.3 7.90002C786.3 6.10002 787.6 5.20002 789.6 5.20002C798.7 5.20002 807.8 5.20002 816.9 5.20002C818.9 5.20002 820 6.10002 820.4 7.90002C830.9 51.5 843.2 108.9 853.4 155.9ZM759.5 97.6C775.4 98.4 791.3 99.3 807.1 100.3C802.2 77.8 797.3 55.7 792.3 33.9C781.4 55.4 770.4 76.6 759.5 97.6ZM383.8 131.3C390.1 141.9 394.3 151.1 403.8 150.6C406 150.5 407.4 151.5 407.7 153.6C408.1 155.7 408.4 157.8 408.8 159.9C409.1 162 408.1 163.1 405.9 163.3C379.2 166.4 358.2 171.2 336.7 177.6C334.5 177.8 333.1 176.7 332.8 174.6C332.4 172.4 332.1 170.2 331.7 168.1C331.3 166 333.7 164.1 335.8 163.3C347.9 158.5 351 147.7 349.5 139C349.2 137.2 348.5 135.4 347.5 133.5C344.2 127.6 340.8 121.6 337.5 115.6C316.9 116.7 296.3 118.1 275.8 119.6C274.6 126.1 272.9 138.8 272.2 144.8C270.5 158.7 269.7 182 287.5 180C289.7 179.7 291.1 180.8 291.4 183C291.8 185.2 292.1 187.5 292.5 189.7C292.9 191.9 291.9 193.2 289.7 193.4C270.4 197.2 254.3 202.8 230.5 211.8C228.3 212.1 227 211 226.6 208.8C226.2 206.5 226 206.6 225.6 204.2C225 200.3 227.5 198.2 230.4 195.7C242.4 185.2 247.4 153.7 249.8 141.3C258.6 95.4 267.7 51 276.9 7.90002C277.3 6.10002 278.4 5.20002 280.3 5.20002C289.4 5.20002 298.5 5.20002 307.6 5.20002C309.6 5.20002 310.9 6.00003 311.9 7.80003C335.9 49.8 359.9 90.9 383.8 131.3ZM279.5 99.6C295.3 98.7 311.2 97.8 327.1 97C315.5 76.2 303.8 55.1 292.1 33.7C287.9 55.4 283.7 77.3 279.5 99.6ZM1121 366.2C1121 369.8 1121 370.6 1121 374.2C1121 377.7 1115.2 378.4 1112.1 375.7C1080.1 339.1 1039.2 310.4 1016.8 295.7C1013 293.7 1012.6 289.8 1012.6 286.6C1012.6 283.3 1012.6 283.3 1012.5 280C1012.5 276.8 1013.9 275.4 1016.7 275.9C1017.3 276 1017.9 276.1 1018.5 276.3C1027.8 277.7 1032.2 271.9 1032.2 262.9C1032.2 258.2 1025.4 221.1 1023.2 212.6C1016.4 189.1 1013.4 164.2 996.5 143.4C990.8 143.3 984.6 142.9 978 142.1C971 141.3 964 140.4 957 139.6C957.1 157 957.3 174.5 957.4 191.9C957.5 208.4 954.7 232.4 974.8 245.6C977 247.4 982.5 251.7 982.5 258.3C982.5 261.5 982.5 264.7 982.6 268C982.6 271.1 981.2 272.5 978.4 271.9C944.2 249.6 919.9 238.9 892 228.1C889.3 227.6 887.8 225.8 887.7 222.9C887.7 219.9 887.6 216.9 887.6 213.9C887.6 211 889 209.7 891.8 210.1C892.4 210.2 893.1 210.3 893.7 210.4C908 211.9 912.6 197.3 912.4 181.3C912 136.9 911.5 96.3 911.1 51.9C910.9 35.4 905.8 23 890.3 22.8C890.2 22.8 890.1 22.8 890 22.8C887.2 22.8 885.7 21.2 885.7 18.3C885.7 15.3 885.6 12.4 885.6 9.40002C885.6 6.50002 887 4.90002 889.8 5.00002C924.4 5.10002 959 5.20003 993.7 5.30003C1039.6 4.90003 1069.2 38.7 1069.3 78.9C1069.3 102.6 1060.1 125.7 1036.1 136.5C1063.1 163.1 1084.1 312.4 1115.3 353.2C1116.6 355.4 1121 360.2 1121 366.2ZM973.1 119.1C1010.6 123.1 1027.2 106.5 1027.1 76C1027 44.9 1009.8 25 981.5 24.6C973 24.4 964.5 24.3 956 24.1C956.3 55.2 956.5 86.4 956.8 117.5C962.2 118 967.6 118.6 973.1 119.1Z" stroke="url(#paint1_linear_34_18)" stroke-width="4" stroke-miterlimit="10"/>
<defs>
<linearGradient id="paint0_linear_34_18" x1="561.476" y1="377.424" x2="561.476" y2="2.47212" gradientUnits="userSpaceOnUse">
<stop stop-color="#051E19"/>
<stop offset="1" stop-color="#0B3D33"/>
</linearGradient>
<linearGradient id="paint1_linear_34_18" x1="561.476" y1="0.472124" x2="561.476" y2="379.424" gradientUnits="userSpaceOnUse">
<stop stop-color="#FCAB31"/>
<stop offset="0.2828" stop-color="#D08720"/>
<stop offset="0.6035" stop-color="#A4640F"/>
<stop offset="0.8534" stop-color="#894E05"/>
<stop offset="1" stop-color="#7F4601"/>
</linearGradient>
</defs>
</svg>
